<?xml version="1.0" encoding="UTF-8"?>
<svg xmlns="http://www.w3.org/2000/svg" xmlns:xlink="http://www.w3.org/1999/xlink" viewBox="0 0 1928.48 331.8">
  <defs>
    <style>
      .cls-1 {
        fill: #231f20;
      }

      .cls-2 {
        fill: url(#linear-gradient);
      }

      .cls-3 {
        fill: #211329;
      }

      .cls-4 {
        fill: #fff;
      }

      .cls-5 {
        fill: #cf2338;
      }

      .cls-6 {
        fill: #7f3885;
      }

      .cls-7 {
        fill: #eee4f1;
      }
    </style>
    <linearGradient id="linear-gradient" x1="1" y1="165.9" x2="1928.48" y2="165.9" gradientUnits="userSpaceOnUse">
      <stop offset="0" stop-color="#7f3885"/>
      <stop offset="1" stop-color="#cf2338"/>
    </linearGradient>
  </defs>
  <g id="black">
    <g>
      <path class="cls-1" d="M196.32,77.81c-12.35-24.76-29.83-43.93-52.45-57.47C121.28,6.77,94.75,0,64.35,0H0v327.13h64.35c30.41,0,56.93-6.78,79.52-20.33,22.62-13.55,40.1-32.71,52.45-57.47,12.35-24.78,18.53-53.35,18.53-85.76s-6.18-60.99-18.53-85.76ZM187.55,239.5c-10.39,22.59-26.07,40.5-46.99,53.74-20.92,13.25-46.32,19.86-76.21,19.86H11.7V14.02h52.65c29.89,0,55.29,6.62,76.21,19.86,20.92,13.25,36.6,31.15,46.99,53.74,10.39,22.59,15.6,47.9,15.6,75.94s-5.2,53.35-15.6,75.94Z"/>
      <polygon class="cls-1" points="436.7 327.13 424.22 327.13 391.07 226.65 389.53 221.98 387.57 216.36 386.33 212.63 322.86 21.56 259.37 212.63 258.13 216.36 256.17 221.98 254.63 226.65 221.48 327.13 209 327.13 318.56 0 327.13 0 436.7 327.13"/>
      <path class="cls-1" d="M672.59,0v301.54l-61.21-92.48-.03-.03-32.36-48.9-.03-.03L472.97,0h-8.97v327.13h11.7V25.57l.29.43,60.98,92.1.02.03,32.33,48.87.03.03,105.98,160.09h8.97V0h-11.7Z"/>
      <path class="cls-1" d="M1056.65,0v301.54l-61.24-92.51-32.39-48.93L857.02,0h-8.97v327.13h11.7V25.57l61.27,92.54,32.38,48.93,105.98,160.09h8.97V0h-11.7Z"/>
      <path class="cls-1" d="M1447.91,77.81c-12.34-24.76-29.81-43.93-52.44-57.47C1372.86,6.77,1346.36,0,1315.94,0h-64.33v327.13h64.33c30.42,0,56.93-6.78,79.54-20.33,22.62-13.55,40.1-32.71,52.44-57.47,12.35-24.78,18.53-53.35,18.53-85.76s-6.18-60.99-18.53-85.76ZM1439.15,239.5c-10.41,22.59-26.07,40.5-46.99,53.74-20.92,13.25-46.34,19.86-76.23,19.86h-52.63V14.02h52.63c29.89,0,55.3,6.62,76.23,19.86,20.92,13.25,36.58,31.15,46.99,53.74,10.38,22.59,15.58,47.9,15.58,75.94s-5.2,53.35-15.58,75.94Z"/>
      <path class="cls-1" d="M1681.27,0v212.63c0,21.18-3.44,39.72-10.32,55.61-6.89,15.89-16.57,28.12-29.04,36.69-12.49,8.57-27.04,12.85-43.68,12.85s-31.2-4.28-43.67-12.85c-12.47-8.57-22.17-20.8-29.04-36.69-6.89-15.89-10.33-34.43-10.33-55.61V0h-11.7v212.63c0,23.67,3.96,44.55,11.9,62.62,7.92,18.07,19.1,32.01,33.53,41.83,14.41,9.8,30.85,14.72,49.31,14.72s34.9-4.92,49.33-14.72c14.43-9.82,25.6-23.76,33.53-41.83,7.92-18.07,11.88-38.95,11.88-62.62V0h-11.7Z"/>
      <polygon class="cls-1" points="1928.48 327.13 1916.01 327.13 1882.84 226.65 1881.3 221.98 1879.36 216.36 1878.12 212.63 1814.63 21.55 1751.14 212.63 1749.9 216.36 1747.96 221.98 1746.41 226.65 1713.25 327.13 1700.77 327.13 1810.34 0 1818.92 0 1928.48 327.13"/>
    </g>
  </g>
  <g id="lightpurple">
    <g>
      <path class="cls-7" d="M196.32,77.81c-12.35-24.76-29.83-43.93-52.45-57.47C121.28,6.77,94.75,0,64.35,0H0v327.13h64.35c30.41,0,56.93-6.78,79.52-20.33,22.62-13.55,40.1-32.71,52.45-57.47,12.35-24.78,18.53-53.35,18.53-85.76s-6.18-60.99-18.53-85.76ZM187.55,239.5c-10.39,22.59-26.07,40.5-46.99,53.74-20.92,13.25-46.32,19.86-76.21,19.86H11.7V14.02h52.65c29.89,0,55.29,6.62,76.21,19.86,20.92,13.25,36.6,31.15,46.99,53.74,10.39,22.59,15.6,47.9,15.6,75.94s-5.2,53.35-15.6,75.94Z"/>
      <polygon class="cls-7" points="436.7 327.13 424.22 327.13 391.07 226.65 389.53 221.98 387.57 216.36 386.33 212.63 322.86 21.56 259.37 212.63 258.13 216.36 256.17 221.98 254.63 226.65 221.48 327.13 209 327.13 318.56 0 327.13 0 436.7 327.13"/>
      <path class="cls-7" d="M672.59,0v301.54l-61.21-92.48-.03-.03-32.36-48.9-.03-.03L472.97,0h-8.97v327.13h11.7V25.57l.29.43,60.98,92.1.02.03,32.33,48.87.03.03,105.98,160.09h8.97V0h-11.7Z"/>
      <path class="cls-7" d="M1056.65,0v301.54l-61.24-92.51-32.39-48.93L857.02,0h-8.97v327.13h11.7V25.57l61.27,92.54,32.38,48.93,105.98,160.09h8.97V0h-11.7Z"/>
      <path class="cls-7" d="M1447.91,77.81c-12.34-24.76-29.81-43.93-52.44-57.47C1372.86,6.77,1346.36,0,1315.94,0h-64.33v327.13h64.33c30.42,0,56.93-6.78,79.54-20.33,22.62-13.55,40.1-32.71,52.44-57.47,12.35-24.78,18.53-53.35,18.53-85.76s-6.18-60.99-18.53-85.76ZM1439.15,239.5c-10.41,22.59-26.07,40.5-46.99,53.74-20.92,13.25-46.34,19.86-76.23,19.86h-52.63V14.02h52.63c29.89,0,55.3,6.62,76.23,19.86,20.92,13.25,36.58,31.15,46.99,53.74,10.38,22.59,15.58,47.9,15.58,75.94s-5.2,53.35-15.58,75.94Z"/>
      <path class="cls-7" d="M1681.27,0v212.63c0,21.18-3.44,39.72-10.32,55.61-6.89,15.89-16.57,28.12-29.04,36.69-12.49,8.57-27.04,12.85-43.68,12.85s-31.2-4.28-43.67-12.85c-12.47-8.57-22.17-20.8-29.04-36.69-6.89-15.89-10.33-34.43-10.33-55.61V0h-11.7v212.63c0,23.67,3.96,44.55,11.9,62.62,7.92,18.07,19.1,32.01,33.53,41.83,14.41,9.8,30.85,14.72,49.31,14.72s34.9-4.92,49.33-14.72c14.43-9.82,25.6-23.76,33.53-41.83,7.92-18.07,11.88-38.95,11.88-62.62V0h-11.7Z"/>
      <polygon class="cls-7" points="1928.48 327.13 1916.01 327.13 1882.84 226.65 1881.3 221.98 1879.36 216.36 1878.12 212.63 1814.63 21.55 1751.14 212.63 1749.9 216.36 1747.96 221.98 1746.41 226.65 1713.25 327.13 1700.77 327.13 1810.34 0 1818.92 0 1928.48 327.13"/>
    </g>
  </g>
  <g id="red">
    <g>
      <path class="cls-5" d="M196.32,77.81c-12.35-24.76-29.83-43.93-52.45-57.47C121.28,6.77,94.75,0,64.35,0H0v327.13h64.35c30.41,0,56.93-6.78,79.52-20.33,22.62-13.55,40.1-32.71,52.45-57.47,12.35-24.78,18.53-53.35,18.53-85.76s-6.18-60.99-18.53-85.76ZM187.55,239.5c-10.39,22.59-26.07,40.5-46.99,53.74-20.92,13.25-46.32,19.86-76.21,19.86H11.7V14.02h52.65c29.89,0,55.29,6.62,76.21,19.86,20.92,13.25,36.6,31.15,46.99,53.74,10.39,22.59,15.6,47.9,15.6,75.94s-5.2,53.35-15.6,75.94Z"/>
      <polygon class="cls-5" points="436.7 327.13 424.22 327.13 391.07 226.65 389.53 221.98 387.57 216.36 386.33 212.63 322.86 21.56 259.37 212.63 258.13 216.36 256.17 221.98 254.63 226.65 221.48 327.13 209 327.13 318.56 0 327.13 0 436.7 327.13"/>
      <path class="cls-5" d="M672.59,0v301.54l-61.21-92.48-.03-.03-32.36-48.9-.03-.03L472.97,0h-8.97v327.13h11.7V25.57l.29.43,60.98,92.1.02.03,32.33,48.87.03.03,105.98,160.09h8.97V0h-11.7Z"/>
      <path class="cls-5" d="M1056.65,0v301.54l-61.24-92.51-32.39-48.93L857.02,0h-8.97v327.13h11.7V25.57l61.27,92.54,32.38,48.93,105.98,160.09h8.97V0h-11.7Z"/>
      <path class="cls-5" d="M1447.91,77.81c-12.34-24.76-29.81-43.93-52.44-57.47C1372.86,6.77,1346.36,0,1315.94,0h-64.33v327.13h64.33c30.42,0,56.93-6.78,79.54-20.33,22.62-13.55,40.1-32.71,52.44-57.47,12.35-24.78,18.53-53.35,18.53-85.76s-6.18-60.99-18.53-85.76ZM1439.15,239.5c-10.41,22.59-26.07,40.5-46.99,53.74-20.92,13.25-46.34,19.86-76.23,19.86h-52.63V14.02h52.63c29.89,0,55.3,6.62,76.23,19.86,20.92,13.25,36.58,31.15,46.99,53.74,10.38,22.59,15.58,47.9,15.58,75.94s-5.2,53.35-15.58,75.94Z"/>
      <path class="cls-5" d="M1681.27,0v212.63c0,21.18-3.44,39.72-10.32,55.61-6.89,15.89-16.57,28.12-29.04,36.69-12.49,8.57-27.04,12.85-43.68,12.85s-31.2-4.28-43.67-12.85c-12.47-8.57-22.17-20.8-29.04-36.69-6.89-15.89-10.33-34.43-10.33-55.61V0h-11.7v212.63c0,23.67,3.96,44.55,11.9,62.62,7.92,18.07,19.1,32.01,33.53,41.83,14.41,9.8,30.85,14.72,49.31,14.72s34.9-4.92,49.33-14.72c14.43-9.82,25.6-23.76,33.53-41.83,7.92-18.07,11.88-38.95,11.88-62.62V0h-11.7Z"/>
      <polygon class="cls-5" points="1928.48 327.13 1916.01 327.13 1882.84 226.65 1881.3 221.98 1879.36 216.36 1878.12 212.63 1814.63 21.55 1751.14 212.63 1749.9 216.36 1747.96 221.98 1746.41 226.65 1713.25 327.13 1700.77 327.13 1810.34 0 1818.92 0 1928.48 327.13"/>
    </g>
  </g>
  <g id="white">
    <g>
      <path class="cls-4" d="M196.32,77.81c-12.35-24.76-29.83-43.93-52.45-57.47C121.28,6.77,94.75,0,64.35,0H0v327.13h64.35c30.41,0,56.93-6.78,79.52-20.33,22.62-13.55,40.1-32.71,52.45-57.47,12.35-24.78,18.53-53.35,18.53-85.76s-6.18-60.99-18.53-85.76ZM187.55,239.5c-10.39,22.59-26.07,40.5-46.99,53.74-20.92,13.25-46.32,19.86-76.21,19.86H11.7V14.02h52.65c29.89,0,55.29,6.62,76.21,19.86,20.92,13.25,36.6,31.15,46.99,53.74,10.39,22.59,15.6,47.9,15.6,75.94s-5.2,53.35-15.6,75.94Z"/>
      <polygon class="cls-4" points="436.7 327.13 424.22 327.13 391.07 226.65 389.53 221.98 387.57 216.36 386.33 212.63 322.86 21.56 259.37 212.63 258.13 216.36 256.17 221.98 254.63 226.65 221.48 327.13 209 327.13 318.56 0 327.13 0 436.7 327.13"/>
      <path class="cls-4" d="M672.59,0v301.54l-61.21-92.48-.03-.03-32.36-48.9-.03-.03L472.97,0h-8.97v327.13h11.7V25.57l.29.43,60.98,92.1.02.03,32.33,48.87.03.03,105.98,160.09h8.97V0h-11.7Z"/>
      <path class="cls-4" d="M1056.65,0v301.54l-61.24-92.51-32.39-48.93L857.02,0h-8.97v327.13h11.7V25.57l61.27,92.54,32.38,48.93,105.98,160.09h8.97V0h-11.7Z"/>
      <path class="cls-4" d="M1447.91,77.81c-12.34-24.76-29.81-43.93-52.44-57.47C1372.86,6.77,1346.36,0,1315.94,0h-64.33v327.13h64.33c30.42,0,56.93-6.78,79.54-20.33,22.62-13.55,40.1-32.71,52.44-57.47,12.35-24.78,18.53-53.35,18.53-85.76s-6.18-60.99-18.53-85.76ZM1439.15,239.5c-10.41,22.59-26.07,40.5-46.99,53.74-20.92,13.25-46.34,19.86-76.23,19.86h-52.63V14.02h52.63c29.89,0,55.3,6.62,76.23,19.86,20.92,13.25,36.58,31.15,46.99,53.74,10.38,22.59,15.58,47.9,15.58,75.94s-5.2,53.35-15.58,75.94Z"/>
      <path class="cls-4" d="M1681.27,0v212.63c0,21.18-3.44,39.72-10.32,55.61-6.89,15.89-16.57,28.12-29.04,36.69-12.49,8.57-27.04,12.85-43.68,12.85s-31.2-4.28-43.67-12.85c-12.47-8.57-22.17-20.8-29.04-36.69-6.89-15.89-10.33-34.43-10.33-55.61V0h-11.7v212.63c0,23.67,3.96,44.55,11.9,62.62,7.92,18.07,19.1,32.01,33.53,41.83,14.41,9.8,30.85,14.72,49.31,14.72s34.9-4.92,49.33-14.72c14.43-9.82,25.6-23.76,33.53-41.83,7.92-18.07,11.88-38.95,11.88-62.62V0h-11.7Z"/>
      <polygon class="cls-4" points="1928.48 327.13 1916.01 327.13 1882.84 226.65 1881.3 221.98 1879.36 216.36 1878.12 212.63 1814.63 21.55 1751.14 212.63 1749.9 216.36 1747.96 221.98 1746.41 226.65 1713.25 327.13 1700.77 327.13 1810.34 0 1818.92 0 1928.48 327.13"/>
    </g>
  </g>
  <g id="_very_dark_purple">
    <g>
      <path class="cls-3" d="M196.32,77.81c-12.35-24.76-29.83-43.93-52.45-57.47C121.28,6.77,94.75,0,64.35,0H0v327.13h64.35c30.41,0,56.93-6.78,79.52-20.33,22.62-13.55,40.1-32.71,52.45-57.47,12.35-24.78,18.53-53.35,18.53-85.76s-6.18-60.99-18.53-85.76ZM187.55,239.5c-10.39,22.59-26.07,40.5-46.99,53.74-20.92,13.25-46.32,19.86-76.21,19.86H11.7V14.02h52.65c29.89,0,55.29,6.62,76.21,19.86,20.92,13.25,36.6,31.15,46.99,53.74,10.39,22.59,15.6,47.9,15.6,75.94s-5.2,53.35-15.6,75.94Z"/>
      <polygon class="cls-3" points="436.7 327.13 424.22 327.13 391.07 226.65 389.53 221.98 387.57 216.36 386.33 212.63 322.86 21.56 259.37 212.63 258.13 216.36 256.17 221.98 254.63 226.65 221.48 327.13 209 327.13 318.56 0 327.13 0 436.7 327.13"/>
      <path class="cls-3" d="M672.59,0v301.54l-61.21-92.48-.03-.03-32.36-48.9-.03-.03L472.97,0h-8.97v327.13h11.7V25.57l.29.43,60.98,92.1.02.03,32.33,48.87.03.03,105.98,160.09h8.97V0h-11.7Z"/>
      <path class="cls-3" d="M1056.65,0v301.54l-61.24-92.51-32.39-48.93L857.02,0h-8.97v327.13h11.7V25.57l61.27,92.54,32.38,48.93,105.98,160.09h8.97V0h-11.7Z"/>
      <path class="cls-3" d="M1447.91,77.81c-12.34-24.76-29.81-43.93-52.44-57.47C1372.86,6.77,1346.36,0,1315.94,0h-64.33v327.13h64.33c30.42,0,56.93-6.78,79.54-20.33,22.62-13.55,40.1-32.71,52.44-57.47,12.35-24.78,18.53-53.35,18.53-85.76s-6.18-60.99-18.53-85.76ZM1439.15,239.5c-10.41,22.59-26.07,40.5-46.99,53.74-20.92,13.25-46.34,19.86-76.23,19.86h-52.63V14.02h52.63c29.89,0,55.3,6.62,76.23,19.86,20.92,13.25,36.58,31.15,46.99,53.74,10.38,22.59,15.58,47.9,15.58,75.94s-5.2,53.35-15.58,75.94Z"/>
      <path class="cls-3" d="M1681.27,0v212.63c0,21.18-3.44,39.72-10.32,55.61-6.89,15.89-16.57,28.12-29.04,36.69-12.49,8.57-27.04,12.85-43.68,12.85s-31.2-4.28-43.67-12.85c-12.47-8.57-22.17-20.8-29.04-36.69-6.89-15.89-10.33-34.43-10.33-55.61V0h-11.7v212.63c0,23.67,3.96,44.55,11.9,62.62,7.92,18.07,19.1,32.01,33.53,41.83,14.41,9.8,30.85,14.72,49.31,14.72s34.9-4.92,49.33-14.72c14.43-9.82,25.6-23.76,33.53-41.83,7.92-18.07,11.88-38.95,11.88-62.62V0h-11.7Z"/>
      <polygon class="cls-3" points="1928.48 327.13 1916.01 327.13 1882.84 226.65 1881.3 221.98 1879.36 216.36 1878.12 212.63 1814.63 21.55 1751.14 212.63 1749.9 216.36 1747.96 221.98 1746.41 226.65 1713.25 327.13 1700.77 327.13 1810.34 0 1818.92 0 1928.48 327.13"/>
    </g>
  </g>
  <g id="purple">
    <g>
      <path class="cls-6" d="M196.32,77.81c-12.35-24.76-29.83-43.93-52.45-57.47C121.28,6.77,94.75,0,64.35,0H0v327.13h64.35c30.41,0,56.93-6.78,79.52-20.33,22.62-13.55,40.1-32.71,52.45-57.47,12.35-24.78,18.53-53.35,18.53-85.76s-6.18-60.99-18.53-85.76ZM187.55,239.5c-10.39,22.59-26.07,40.5-46.99,53.74-20.92,13.25-46.32,19.86-76.21,19.86H11.7V14.02h52.65c29.89,0,55.29,6.62,76.21,19.86,20.92,13.25,36.6,31.15,46.99,53.74,10.39,22.59,15.6,47.9,15.6,75.94s-5.2,53.35-15.6,75.94Z"/>
      <polygon class="cls-6" points="436.7 327.13 424.22 327.13 391.07 226.65 389.53 221.98 387.57 216.36 386.33 212.63 322.86 21.56 259.37 212.63 258.13 216.36 256.17 221.98 254.63 226.65 221.48 327.13 209 327.13 318.56 0 327.13 0 436.7 327.13"/>
      <path class="cls-6" d="M672.59,0v301.54l-61.21-92.48-.03-.03-32.36-48.9-.03-.03L472.97,0h-8.97v327.13h11.7V25.57l.29.43,60.98,92.1.02.03,32.33,48.87.03.03,105.98,160.09h8.97V0h-11.7Z"/>
      <path class="cls-6" d="M1056.65,0v301.54l-61.24-92.51-32.39-48.93L857.02,0h-8.97v327.13h11.7V25.57l61.27,92.54,32.38,48.93,105.98,160.09h8.97V0h-11.7Z"/>
      <path class="cls-6" d="M1447.91,77.81c-12.34-24.76-29.81-43.93-52.44-57.47C1372.86,6.77,1346.36,0,1315.94,0h-64.33v327.13h64.33c30.42,0,56.93-6.78,79.54-20.33,22.62-13.55,40.1-32.71,52.44-57.47,12.35-24.78,18.53-53.35,18.53-85.76s-6.18-60.99-18.53-85.76ZM1439.15,239.5c-10.41,22.59-26.07,40.5-46.99,53.74-20.92,13.25-46.34,19.86-76.23,19.86h-52.63V14.02h52.63c29.89,0,55.3,6.62,76.23,19.86,20.92,13.25,36.58,31.15,46.99,53.74,10.38,22.59,15.58,47.9,15.58,75.94s-5.2,53.35-15.58,75.94Z"/>
      <path class="cls-6" d="M1681.27,0v212.63c0,21.18-3.44,39.72-10.32,55.61-6.89,15.89-16.57,28.12-29.04,36.69-12.49,8.57-27.04,12.85-43.68,12.85s-31.2-4.28-43.67-12.85c-12.47-8.57-22.17-20.8-29.04-36.69-6.89-15.89-10.33-34.43-10.33-55.61V0h-11.7v212.63c0,23.67,3.96,44.55,11.9,62.62,7.92,18.07,19.1,32.01,33.53,41.83,14.41,9.8,30.85,14.72,49.31,14.72s34.9-4.92,49.33-14.72c14.43-9.82,25.6-23.76,33.53-41.83,7.92-18.07,11.88-38.95,11.88-62.62V0h-11.7Z"/>
      <polygon class="cls-6" points="1928.48 327.13 1916.01 327.13 1882.84 226.65 1881.3 221.98 1879.36 216.36 1878.12 212.63 1814.63 21.55 1751.14 212.63 1749.9 216.36 1747.96 221.98 1746.41 226.65 1713.25 327.13 1700.77 327.13 1810.34 0 1818.92 0 1928.48 327.13"/>
    </g>
  </g>
  <g id="gradient">
    <path class="cls-2" d="M1819.91,0h-8.58l-109.56,327.13h12.47l33.17-100.48,1.54-4.67,1.94-5.62,1.24-3.73,63.49-191.08,63.49,191.08,1.24,3.73,1.94,5.62,1.55,4.67,33.16,100.48h11.48v-2.99L1819.91,0ZM1682.26,0v212.63c0,21.18-3.44,39.72-10.31,55.61-6.89,15.89-16.57,28.11-29.05,36.69-12.48,8.57-27.03,12.85-43.68,12.85s-31.19-4.28-43.67-12.85c-12.47-8.58-22.16-20.8-29.04-36.69-6.88-15.89-10.33-34.43-10.33-55.61V0h-11.7v212.63c0,23.67,3.96,44.55,11.9,62.62,7.92,18.07,19.1,32.01,33.53,41.83,14.41,9.8,30.85,14.72,49.31,14.72s34.9-4.92,49.33-14.72c14.43-9.82,25.6-23.76,33.53-41.83,7.92-18.07,11.88-38.95,11.88-62.62V0h-11.7ZM1396.47,20.33c-22.61-13.56-49.12-20.33-79.54-20.33h-64.33v327.13h64.33c30.42,0,56.93-6.79,79.54-20.34,22.62-13.55,40.1-32.71,52.43-57.47,12.36-24.78,18.53-53.35,18.53-85.76s-6.17-60.99-18.53-85.75c-12.33-24.77-29.81-43.93-52.43-57.48ZM1440.15,239.5c-10.41,22.59-26.07,40.5-46.99,53.74-20.92,13.25-46.34,19.87-76.23,19.87h-52.63V14.02h52.63c29.89,0,55.31,6.61,76.23,19.86s36.58,31.15,46.99,53.74c10.38,22.6,15.58,47.9,15.58,75.94s-5.2,53.35-15.58,75.94ZM1057.64,301.54l-61.23-92.5-32.4-48.94L858.02,0h-8.97v327.13h11.7V25.57l61.26,92.53,32.38,48.94,105.99,160.09h8.96V0h-11.7v301.54ZM673.59,301.54l-61.21-92.47-.03-.03-32.36-48.91-.03-.03L473.96,0h-8.97v327.13h11.7V25.57l.29.43,60.98,92.1.02.04,32.33,48.87.03.03,105.98,160.09h8.97V0h-11.7v301.54ZM319.56,0l-109.56,327.13h12.47l33.15-100.48,1.55-4.67,1.95-5.62,1.24-3.73,63.49-191.07,63.48,191.07,1.24,3.73,1.95,5.62,1.55,4.67,33.15,100.48h12.47L328.13,0h-8.57ZM197.32,77.81c-12.35-24.77-29.83-43.93-52.46-57.48C122.27,6.77,95.75,0,65.34,0H1v327.13h64.34c30.41,0,56.93-6.79,79.52-20.34,22.63-13.55,40.11-32.71,52.46-57.47,12.35-24.78,18.52-53.35,18.52-85.76s-6.17-60.99-18.52-85.75ZM188.55,239.5c-10.4,22.59-26.07,40.5-46.99,53.74-20.93,13.25-46.33,19.87-76.22,19.87H12.69V14.02h52.65c29.89,0,55.29,6.61,76.22,19.86,20.92,13.25,36.59,31.15,46.99,53.74,10.39,22.6,15.59,47.9,15.59,75.94s-5.2,53.35-15.59,75.94Z"/>
  </g>
</svg>