<?xml version="1.0" encoding="UTF-8"?>
<svg xmlns="http://www.w3.org/2000/svg" xmlns:xlink="http://www.w3.org/1999/xlink"
  viewBox="0 0 1928.48 331.8">
  <defs>
    <style>
      .cls-1 {
      fill: #7f3885;
      }
    </style>
  </defs>
  <g id="black">
    <g>
      <path class="cls-1"
        d="M196.32,77.81c-12.35-24.76-29.83-43.93-52.45-57.47C121.28,6.77,94.75,0,64.35,0H0v327.13h64.35c30.41,0,56.93-6.78,79.52-20.33,22.62-13.55,40.1-32.71,52.45-57.47,12.35-24.78,18.53-53.35,18.53-85.76s-6.18-60.99-18.53-85.76ZM187.55,239.5c-10.39,22.59-26.07,40.5-46.99,53.74-20.92,13.25-46.32,19.86-76.21,19.86H11.7V14.02h52.65c29.89,0,55.29,6.62,76.21,19.86,20.92,13.25,36.6,31.15,46.99,53.74,10.39,22.59,15.6,47.9,15.6,75.94s-5.2,53.35-15.6,75.94Z" />
    </g>
  </g>
</svg>