<?xml version="1.0" standalone="no"?>
<!DOCTYPE svg PUBLIC "-//W3C//DTD SVG 20010904//EN" "http://www.w3.org/TR/2001/REC-SVG-20010904/DTD/svg10.dtd">
<svg version="1.0" xmlns="http://www.w3.org/2000/svg"
    width="300.000000pt" height="300.000000pt" viewBox="0 0 300.000000 300.000000"
    preserveAspectRatio="xMidYMid meet">
    <metadata> Created by potrace 1.10, written by Peter Selinger 2001-2011 </metadata>
    <g transform="translate(0.000000,300.000000) scale(0.100000,-0.100000)" class="fill-foreground"
        stroke="none">
        <path
            d="M1460 2697 c-21 -8 -42 -25 -55 -47 -18 -31 -21 -58 -26 -240 -4
-113 -10 -215 -14 -227 -6 -20 -4 -23 21 -23 l29 0 4 218 c3 183 6 220 19 235
42 48 78 42 106 -17 24 -51 24 -401 -1 -428 -15 -17 -15 -18 8 -18 13 0 34 3
46 6 18 5 20 10 12 37 -5 18 -9 112 -9 210 0 175 -1 179 -27 224 -23 40 -24
45 -7 41 10 -2 28 -18 40 -35 20 -29 22 -49 26 -215 5 -168 15 -240 35 -237 5
1 16 1 27 0 16 -1 17 -3 5 -18 -13 -15 -11 -16 18 -10 18 3 34 3 37 -1 3 -4 6
-104 7 -222 l2 -214 -34 -15 c-43 -19 -44 -20 -37 -27 4 -3 21 2 39 11 31 17
35 16 128 -14 53 -17 115 -36 139 -41 54 -14 78 -37 93 -92 17 -64 8 -1153
-10 -1171 -11 -10 -12 -3 -7 38 4 28 7 294 9 591 2 521 1 543 -17 563 -11 12
-30 21 -43 21 l-25 0 27 -32 26 -31 -3 -562 c-3 -507 -5 -563 -20 -587 -20
-30 -52 -39 -368 -98 -118 -22 -235 -45 -260 -51 -56 -14 -108 -15 -120 -3 -5
5 -11 278 -15 619 -7 672 -9 648 55 671 l35 12 -40 -1 c-74 -3 -70 31 -70
-649 -1 -334 -4 -610 -8 -614 -17 -17 -273 128 -284 160 -4 12 -9 28 -11 36
-2 8 -6 264 -8 568 -5 547 -5 552 15 581 12 17 40 36 64 44 99 35 165 51 207
52 l45 0 -23 22 -23 23 -105 -25 c-120 -28 -152 -43 -187 -84 -23 -28 -25 -40
-32 -173 -3 -79 -3 -349 2 -602 l9 -459 31 -26 c18 -15 103 -63 191 -109 137
-71 166 -82 209 -82 65 0 666 116 710 137 19 8 39 25 46 37 8 15 12 178 15
606 3 548 2 587 -15 620 -24 47 -62 70 -198 120 l-115 43 0 204 c0 120 -4 212
-10 223 -6 11 -33 26 -64 35 l-53 16 -6 82 c-4 45 -7 132 -7 192 0 91 -3 115
-20 142 -32 53 -102 79 -160 60z" />
        <path d="M1300 2208 c-41 -11 -75 -38 -48 -38 39 0 80 14 89 31 11 21 9 21
-41 7z" />
        <path d="M1222 1963 c2 -200 6 -177 10 65 2 72 0 132 -4 132 -5 0 -7 -89 -6
-197z" />
        <path
            d="M1257 2138 c9 -10 13 -76 15 -223 l3 -208 34 -19 c59 -33 281 -49
281 -20 0 4 -48 7 -108 8 -59 0 -119 3 -134 7 l-28 7 0 216 0 217 38 -7 c20
-3 87 -6 148 -6 81 0 113 -3 116 -12 2 -7 1 -104 -2 -216 -5 -215 -6 -211 44
-192 l25 9 3 208 c2 114 2 210 0 213 -2 2 -92 8 -200 12 -108 3 -208 10 -222
14 -21 6 -23 5 -13 -8z" />
        <path
            d="M1702 1419 c-23 -4 -47 -11 -52 -14 -16 -10 -12 -92 5 -109 14 -14
14 -18 -1 -41 -9 -14 -14 -28 -10 -32 3 -3 6 -1 6 5 0 13 79 56 87 48 3 -2
-12 -14 -34 -25 l-38 -21 48 6 c26 3 47 4 47 0 0 -3 -19 -23 -42 -46 -24 -22
-36 -38 -28 -36 8 2 26 7 40 10 28 6 28 7 34 106 2 36 7 81 11 102 9 45 -11
58 -73 47z m68 -24 c0 -30 -24 -66 -49 -71 -14 -3 -30 -7 -36 -8 -5 -2 9 -6
33 -10 23 -4 42 -12 42 -18 0 -6 -8 -7 -17 -3 -10 4 -33 9 -51 12 -31 5 -56
23 -32 23 7 0 8 6 0 19 -19 36 -12 59 18 64 63 9 92 7 92 -8z" />
        <path
            d="M1705 1393 c-40 -6 -49 -17 -36 -42 14 -25 43 -27 65 -5 16 16 22 55
9 53 -5 -1 -21 -4 -38 -6z" />
        <path
            d="M1695 1221 c-17 -3 -30 -13 -30 -21 0 -8 -6 -25 -12 -36 -18 -32 5
-48 57 -39 65 11 60 28 -6 20 l-59 -6 50 46 c27 25 45 44 40 44 -6 -1 -23 -4
-40 -8z" />
        <path
            d="M1692 1110 c-56 -13 -50 -23 11 -16 39 5 57 4 57 -4 0 -6 -6 -10 -12
-9 -43 5 -79 -3 -84 -18 -3 -10 -10 -26 -15 -36 -22 -41 28 -59 86 -32 29 14
27 14 -30 8 l-60 -6 20 23 c11 12 34 31 50 43 29 20 29 19 -5 -17 -19 -20 -28
-35 -20 -32 8 2 28 7 43 10 15 4 25 11 22 16 -3 5 0 18 6 28 7 11 9 27 6 36
-7 17 -23 19 -75 6z" />
        <path
            d="M1685 963 c-39 -10 -48 -25 -42 -73 3 -25 1 -54 -3 -65 -14 -40 -2
-52 61 -59 32 -4 59 -11 59 -16 0 -4 -24 -22 -52 -40 -29 -17 -42 -28 -28 -24
14 3 40 15 58 26 26 16 32 25 28 42 -3 11 -6 23 -6 26 0 3 -22 3 -50 2 -40 -3
-51 -1 -57 13 -8 23 8 48 38 56 14 4 17 7 7 8 -24 1 -48 29 -48 56 0 22 6 25
50 31 27 4 53 5 57 3 14 -7 2 -54 -19 -71 l-20 -18 23 -1 c16 -1 10 -5 -18
-12 -47 -13 -69 -30 -59 -46 8 -13 52 -13 81 -1 18 8 18 9 -5 9 l-25 1 26 23
c31 25 47 100 28 123 -11 14 -45 16 -84 7z" />
        <path
            d="M1687 933 c-23 -4 -27 -8 -21 -26 3 -12 10 -26 15 -32 14 -15 63 17
67 43 4 23 0 24 -61 15z" />
        <path
            d="M1659 747 c11 -14 11 -20 1 -32 -18 -22 -1 -18 45 10 22 14 33 25 24
25 -9 0 -32 3 -50 7 -31 6 -33 5 -20 -10z" />
        <path
            d="M1735 508 c-22 -5 -56 -7 -75 -4 -19 2 -27 2 -17 -1 10 -2 16 -10 14
-17 -3 -6 3 -12 13 -12 10 0 17 3 14 7 -2 4 20 10 48 14 55 8 102 25 63 24
-11 -1 -38 -5 -60 -11z" />
        <path
            d="M1742 379 c-12 -5 -44 -11 -70 -13 -62 -6 -63 -7 -22 -15 19 -4 38
-3 41 1 3 5 25 10 48 13 24 2 45 6 48 8 9 10 -23 14 -45 6z" />
    </g>
</svg>